# xmcd CD database file
#
# Track frame offsets:
#	150
#	13112
#	34950
#	47850
#	73625
#	96562
#	115200
#	141442
#	157415
#	194677
#
# Disc length: 2754 seconds
#
# Revision: 0
# Processed by: cddbd v1.5PL3 Copyright (c) Steve Scherf et al.
# Submitted via: CDex 1.51
#
DISCID=a00ac00a
DTITLE=3 Views Producers - 3 views
DYEAR=1900
DGENRE=Jazz
TTITLE0=rockin' in rhythm
TTITLE1=shake down
TTITLE2=gymnopedies No.1
TTITLE3=birdland
TTITLE4=hymn for nobody
TTITLE5=hip on beat
TTITLE6=three views of a secret
TTITLE7=digidi bop
TTITLE8=medley
TTITLE9=sand-witch 3-2-3
EXTD=
EXTT0=
EXTT1=
EXTT2=
EXTT3=
EXTT4=
EXTT5=
EXTT6=
EXTT7=
EXTT8=
EXTT9=
PLAYORDER=
